<svg width="697" height="658" fill="none" xmlns="http://www.w3.org/2000/svg"><path d="M509 654v1H112l4-1h393Z" fill="#344BBD"/><path d="M509 654H116l-4 1c-1-5-1-7 1-11 1-2 2-5 5-6l1-2 8-9 1-3 1-1v-5l-1-2-3-2-2-6c1-3 2-6 6-8l1-1c2 0 3-1 4-3l2-5-4-2-2-2c0-3-1-7 2-9l2-3c1 0 3 1 4-1l2-5c2-4 5-6 9-8 6 1 10-3 14-5l3-1 3-4 4-6 1-6v-1c0-5 2-10 3-14l2-3 3-3 1-2c8-2 14-6 21-9v-10h1l-1-1v-6l-17-7-16-6v-5l3-9 5-12 3-3 8-1 4-1h15c-1-3 1-5 1-7 1-2 1-3-1-5l-6-3-15-7-9-2c-2 0-3-2-2-4l3-8 2-7 2-7 1-1c4-1 7 0 10 1h7l5 1 9 1 1-7c1-1 0-3-1-3-3 1-2-2-3-4v-3c1-3 3-6 2-10l-1-4c-1-2-2-3-4-3l-17-7c-5-1-10-3-13-6l-4-5-3-11v-5l4-2c0-2 0-3-2-5-3-3-7-3-11-4-2 0-5 0-5-4l-6-2c-4 0-5-3-4-7l2-5-1-3-6-2-2-2v-4l3-7c1-2 3-3 5-3l3-2 3-3 4-1v-1l1-12 1-4 5-5 1-2v-1c0-4-2-6-4-7l-5-3-1-2v-6l2-13c1-4 2-9 1-14l3-13 4-15 4-9c1-3 3-5 3-8 0-1-1-2-2-1v-2l-2-2-6-2c-1 0-2-1-2-3l2-4 3-8 3-6 2-5v-2c4-2 4-5 4-9v-2l1-4v-1l1-6v-3l1-2c-1-5 1-8 5-11l3-1c2 0 3 0 4-2l15-10 6-3 3 5h3l14-7a210 210 0 0 1 35-13l3 1 4 1 4-1 4-1 6-1 11-2h2l7-1 4-1h24l6-1 6-1h19l7 1h6l4 1 9 1h6l2 2 3 2h3l6 1 11 2 16 3 12 3c6 2 13 3 19 6l16 9c7 4 12 9 17 14l3 2v4l1 4 1 10c0 1 0 2-2 2l7 11 2 2 1 2v3h-3l-7-4c-3-2-7-2-11-2 1 3 3 3 4 5l3 2v1l4 6c2 3 3 4 1 7l8 6 12 12 10 9 9 10 7 8 8 12 1 5 1 9v6l-2 1-1-2-5-10c-3 2-3 5-2 9v7c0 3-1 7-3 10l2 2v1l-1 11-2 6-5 11a765 765 0 0 1-15 35c-1 2-1 4 1 6l2 3c1 1 1 2 3 2l4 4 7-10c1 3 1 4-5 13l4 5 2 4-1 1c-2 0-1 2-1 3l-1 1c-1 5-4 9-7 13l-6 10-4 7a197 197 0 0 1-20 29l-1 3-4 4h-5l-5-1h-7c-3-2-7-3-11-3h-10l-2 5v3l6 4 8 6 15 12 14 11 7 6 2 1h4c2-1 4 1 5 3 2 2 3 5 2 8l-2 1-1 3-7 9-5 6-3 3 5 9-9 7c-3 2-6 1-8-1l-3 1c-3 3-5 2-8 0l-6-3-1 1c-3 1-4 0-6-2l-6-4-8-1c-1 0-2 2-1 3l5 5 5 4v2c0 2 1 3 3 4s3 2 3 4l-7 12c-3 3-5 6-9 8l-2 2-5 4c-1 1-2 2-4 0h-2l1 8c10-3 19 0 25 8 4 0 6 2 7 6 2 5 3 10 1 15l-1 6c2 1 3 2 2 4l1 1v3l4 1h8c1-1 2 0 3 2l3 17 2 10v2l1 5-1 8c0 2-1 4-3 5l-2 3 3 1c4 2 7 4 9 8l1 5Zm-48-99-6-1-3 1c-1 3-1 6 2 8l1 2 1 4c0 2 1 3 2 2l7-1 2-1 1-4-1-2v-1c-2-3-3-6-6-7ZM316 57v1h3v-1h-3Z" fill="#344BBD"/><path d="M504 135v-1l-2-3 1-2 9 3 14 11 3 3 13 13 8 7 2 2 12 13 3 7 3 4 3 3c3 1 4 4 4 7l-2 3-4-5h-1v2l5 12v1l1 1-1 1-6-13-2-3c-2 0-2-1-1-2 2-2 2-3 1-5l-4-6c-3-5-9-9-13-13l-2-1c-2 0-2-1-3-2l-20-20-3-3-2-3-13-10-3-1ZM533 144c-3-1-4-3-4-6-1-4-4-7-6-11l-5-10-4-12-4-9 1-4c1-1 3 1 4 2l6 6 11 14 12 23 4 9 1 2-1 1-7-11c0 3-1 5-3 5l-5 1ZM548 400c1-3 4-4 6-6v3a496 496 0 0 1-8 13c-2 1-4 0-4-2v-4l2-9 2-8c1-5 4-8 7-12 6-7 13-14 16-22l4-5v6c-2 6-5 11-8 15l-12 15-4 11-2 5v2l1-2ZM564 313a1659 1659 0 0 0 6-21l2-9 1-4c2 2 3 4 3 7 0 5-2 9-3 13l-4 9-3 4-2 1ZM512 424l-9-2c-3-2-3-6-1-8l3-1a567 567 0 0 0 14 9l-3 3-4-1ZM520 436v-4c0-3 3-4 5-4 3 0 6-2 8-4l3-3 4-2c1 2-1 3-2 4l-5 6-1 1c0 3-3 3-5 4h-2c-2 0-3 2-2 4-1 0-3 1-3-1v-1ZM173 156v1c-1 3-3 5-6 6l-2 6-3 8c-2-2-2-3-1-5l2-9v-4c-1-1 0-2 1-3l2-1 7 1ZM559 150c4 3 9 15 9 19l-2-1-7-11-1-5 1-2ZM532 435l-5 5c0-3 1-5 3-6h2v1Z" fill="#344BBD"/><path d="m575 217 1-1 3 8-1 1-3-8ZM583 254l-1-2 2-2 1 2-2 2ZM578 225l1-1 2 5-1 1-2-5ZM584 270v7-3l-1-1v-2l1-1ZM466 400h10-10ZM363 48a2901 2901 0 0 0-7 0h7ZM375 49l-8-1a2722 2722 0 0 0 8 1ZM375 49l-1-1 7 1h-6ZM414 56l-6-1 6 1ZM209 446h-7 7ZM356 48h-6 6ZM330 50ZM337 50Z" fill="#344BBD"/><path d="M363 48h-1a1587 1587 0 0 1 1 0ZM502 131l2 3-3-2 1-1ZM499 404h5-5ZM548 400l-1 2v-2h1ZM533 144h5-5ZM138 574c-1 2-3 1-4 1l1-1h3ZM320 50h-4 4ZM200 446h-3 3ZM194 446l-4 1 4-1ZM485 587h-4 4ZM313 50l-4 1 4-1ZM200 396h-3 3ZM546 338l1-1-1 1ZM481 587v-1 1ZM174 538v1-1ZM204 497v-1 1ZM158 231v2-2ZM555 223ZM160 273v1-1ZM168 249v1-1ZM520 432v1-1ZM584 270v-1 1ZM177 113ZM178 108l-1 1v-1h1ZM179 99v1-1ZM501 619v-1l1 1h-1ZM502 624ZM204 495v1-1ZM461 555l-6-1 6 1ZM316 57h3v1h-3v-1ZM204 497v-1l1 1h-1Z" fill="#344BBD"/><path d="m235 534-2 3-1 1c3 3-1 2-1 3-11 4-22 9-31 17-6 5-11 11-15 18-7 12-14 24-19 37l-15 37c-2 5-1 5-7 5v-1l2-8h-4c-2 0-5 0-7-3-2 0-5-2-7 0h-2l-8 1c-2 0-3 1-3 3h5l9-1h2l6 2c1 0 2 1 1 2 0 2 1 2 3 3l1 1h-37l1-2 2-5 3-9 4-10c2-4 5-7 10-7l2-1v-4c-6-5-5-12 1-16 3-2 3-4 3-7v-1l-4-2v-2c0-4 0-7 2-10 1-3 3-4 6-5l2-2 3-6c1-4 4-6 8-7l16-3 5-6 4-20v-6l4-5 3-3c3-4 7-5 12-7l7-3c3-1 4-2 4-5v-8c0-2-2-1-3-2-3-3-8-3-12-5l-18-8c-2-1-2-2-2-4l2-9 5-14c1-3 2-4 5-4l16-1h8c2 0 4 1 4-2 2-1 2-3 2-4l-1-2-2-3-2-1a427 427 0 0 1-27-9c-3-2-5-5-3-8 2-4 4-9 4-13l1-8c1-3 2-4 5-3l30 6 1-9-1-1-4-2c-2-1-2-2-1-3l3-6 1-6c1-2 1-2-2-3l-25-12-3-2-6-2c-3 1-4 0-5-3l-4-19v-4l-6-3-4-1c-2 0-4-2-4-4-1-2-2-2-3-2l-3-1c-4-1-5-5-2-9l2-8-2-1-5-1-2-3 1-9c1-4 3-4 5-4h4l1-3c1-2 2-3 4-3h2l2-1c-1-5 1-10 1-15 0-3 1-5 4-5 2-1 2-1 2-3v-1c0-3 0-5-4-5l-4-2-2-2v-6l3-21 4-22c2-10 5-19 11-27 2-4 1-8-3-9l-2-1c3-1 5 1 6 2l1-4h4c-2-9-4-18-4-26h-1l-9 21c-1 2-1 2 1 4l3 2-8-2-1-3 4-8 7-14 2-3c2 0 2-2 2-4v-14l3-12a52 52 0 0 1 33-23c2-1 3 0 4 1 3 3 3 3 6 1 11-7 23-11 36-15l16-5 2-1v4l7-2v-1l3 1 4-1 3-1a305 305 0 0 1 85-5l34 4c25 5 51 12 75 24 10 5 19 12 28 20 1 1 2 2 1 4s0 3 1 5l2 5 1 2 2 2 4 7 3 6 5 15 2 1 1-5c1-2 0-3-1-4l-4-5v-2l3 1 4 4c1 1 3 1 2 3l1 1 2 3c8 9 14 18 18 29 3 10 7 20 13 28 3 6 2 11 4 16l-1 2-2-1-1-1-3-10-3-9c-5-9-11-17-18-24-12-12-26-23-40-33h-2l1 1a269 269 0 0 1 49 47l5 7 2 3c3 3 3 5 0 8 3 1 4 3 4 5l3 16c1 11 1 21-2 31l-4 7-2-25a55 55 0 0 1-9 24 320 320 0 0 0-22 52v1l7 8 7-8c-4 8-11 15-18 21l6-8-7-10v-4l1-5c2-8 5-16 9-23l9-20 1-3 1-13v-1l1-5-4 2h-1l-1-2 1-1 1-4v-5l-1-3-3 4c-3 4-6 8-11 10h-3c-1-1 1-1 1-2l5-5 2-16-1-7c-2 5-5 10-9 14l-14 17-2 1c2-5 3-10 2-16l-10 8 3 1-3 1-5-1-4-1c-3-2-4-2-5 2l-3 6-6 10-1 5-1 3c-1 1-2 2-3 1v-3l-2-13-1 1c-2 6-6 11-11 16l-2 2c-1 7-5 13-7 20-2 6-4 12-9 16l10 6 8 6c1 0 2 1 1 2l-2 4-11 17c-1 2-2 4 0 6v2c1 2 0 3-1 4l-7 2-7 1c-3 0-5 2-6 4l-5 9c-1 2-3 3-6 3h-5a916 916 0 0 1 46 28l6 4h2c2-3 3-3 7-2 6 2 13 4 20 4l10 1 2-1 9-13 6-9-3-1c-2-1-2-2-1-3 1-2 2-2 5-2 2 1 2 1 4-1l14-23 8-14-2-1c-5-5-5-3 0-9h1c5 5 6 9 3 16a271 271 0 0 1-42 63l-6 3-7 1-19-3h-3c19 13 37 27 55 43l5-7 2-5c16-23 29-47 38-72l3-10 1-2 1-3a282 282 0 0 0-1-162 250 250 0 0 0-63-101l-15-9a292 292 0 0 0-129-33 298 298 0 0 0-78 7l-1 1h-7c0 1-1 1 0 0l3-1 30-6a295 295 0 0 1 80-1 335 335 0 0 1 110 35l13 8c1 1 2 1 1 3l1 1a218 218 0 0 1 36 49 316 316 0 0 1 25 60 275 275 0 0 1 9 65v19a270 270 0 0 1-20 89c-9 22-21 43-34 62l-3 6-3 6-2 2v6l1 4 1 5c0 2-2 3-3 3-3 1-5 3-7 6l-8 9c-1 1-2 2 0 3l2 2c2 1 2 3 1 4 0 2-3 4-5 4l-2 1-5 3h-7c-2 2-4 2-7 2l-4-1-5-3h-3c-2 2-4 1-6 0l-8-5-1-1h-1v1a27 27 0 0 1 6 8l4 4c2 1 3 6 2 8l-2 5-17 20-5 2-2 1v3l8-1c7 0 13 4 18 9 3 2 5 5 6 9l1 6-2 10v2c1 3 2 6 1 9h11c3 0 4 1 5 3 3 10 5 19 6 29l1 9 3-1 3-1c2 1 3 1 3 3l-2 3c-1 1-3 0-3 2h-1c-1-1 0-2 1-3l3-1v-2l-2-1c-3 1-5 2-6 5l-2 7 1 2c4 2 7 5 8 9v4h-1l-1-2c-1-4-4-7-8-9h-4c4 3 6 7 8 11h-2l-7-8c-2-2-2-2-5 0 4 2 7 4 9 8-2 1-2 1-4-1l-5-5c-2-1-3-1-4 1-2 1-3 2-3 4-1 2-2 2-4 1 0-3 2-6 4-9l11-7 6-2 1-2 1-4v-4l-4-17-3-16c-1-4-3-5-7-5l-5 1c-2 0-4-1-4-3v-4c0-1 1-2-1-2v-1c1-2 0-4-1-5l-2-3c0-1-1-2-3-1l-7 3-5 2-2 2c1 2 2 4 1 7 2 2 2 4 1 6l1 1c2 1 0 3 0 5 0 1-2 2-1 3h3l4 2 2-4c0-2 2-3 3-3l7-2 11-1 1 1v1l-4 2-13 1-3 2-2 3c-2 2-3 5-1 8 1 1 1 2-1 3-2 2-2 3-1 5l10 36v2c-3 0-5-1-6-4-5-12-8-23-11-35l-2-6c-1-1-2-2-3-1a98 98 0 0 0-29 8c-1 0-2 0-1 2l3 18v3c3 4 3 9 4 13l-1 2c-2 0-3-1-4-3l-4-15-1-4c-2-6-4-12-3-19l2-3 8-7 3-3c2-1 2-2 1-4a200 200 0 0 0-34-73c-6-4-13-6-20-7l-18-4-4-1v-1c-3 1-3-1-4-3l-2-15h-5l-7-2c-12-2-23-5-35-6a596 596 0 0 0-74-8h-8l3 2c3 2 3 6 2 9l-10 19h-1v-2c3-6 6-13 10-18 2-3 1-5-1-6l-4-3-2-1-10-1c3 3 1 6 1 8l-2 16c-1 1-1 3 1 4v1l-4 4-20 9c-2 1-3 3-4 6-2 7-3 14-6 20l1 2c2 2 3 3 1 5l-4 5 1 2 8 9 6-9c8-11 17-19 28-26l6-3c6-4 13-5 21-6l-3 6-3 4v1ZM423 96h-3 3l2 1-2-1Zm-35-1h26-7l-1-1h-11l-1 1-5-1-1 1h-3 3Zm22 11h-5 5c2 2 4 1 7 1l-7-1Zm10-39h5c-2-1-3-2-5 0v-2l-8-1c3 2 6 1 8 3Zm46 493 5-6v-2c-1-1-3-3-5-3l-2 7v1l2 3 1 1c0 2 1 2 3 2l7-2-3 3h-5l-1 1 1 1 8 2c1 1 2 0 2-1 0-5-2-9-6-13-2 3-4 5-7 6Zm-9 10h-2l-5 2-1-1v-1l4-2c2-1 2-1 2-3-1-2-2-2-4-1l-2 2h-2l1-2c-2 0-2 0-2-3h5l2-1c0-2-1-2-2-2l-3 1c-2 1-3 0-4-1v-3c1 2 2 2 4 2l2-2 1-2h-7v-2l4-2 1-1-1-1c-1-1-3 0-4 1s-1 0-2-1l-1-2c2 0 3-2 4-3l1-1h-3l-3 2-2-6c3 3 4-1 6-1l-3-3-2 1c-2 1-3 1-4-1l-3-6c-1-1 0-2 1-3l2-1v-2h-3l-4 1v3l7 15c4 10 6 21 9 32l5 24 1 2c2 1 4 2 6 1h1v-1h-3l-2-1 2-2h3c2 0 2-1 3-3l-6 1c-2 0-2 0-3-2v-3l6 1 1-1v-3h-2l-3 1-3-1v-4c2 3 2 3 4 2l4-2c-1-2-3-3-5-2-3 1-5 0-5-3l1-2 1 2h1l2-1c3 0 4-2 4-5h2l6-2c1 0 2-1 2-3 0-4-5-8-9-9h-6c2 2 1 5 3 7l2 7Zm-31-265 1-1 1-20v-5c-1-8-2-16-1-24 0-6 1-12 6-16l1-3-2-9-5-10-4-10c-7-8-13-16-21-23-7-6-15-12-24-15l-3-3-2-1-8-2c-20-6-40-10-61-12h-2c-2 2-3 1-5 1-3-1-6-4-9-7l-11-13a76 76 0 0 1-17-44c0-11 2-22 9-31l1-2-9 3a177 177 0 0 0-47 24h3l3 2-2 3-1 1h-5c-3 1-3 1-4 4l-1 9c0 8 2 16 5 23 5-3 11-4 16-6 3 0 3 0 5 2 1 2 3 2 5 1l1-1 9-3 3 1 9 12 11 13a59 59 0 0 0 41 18l1 1-1 1h-2c-5 0-10 1-15-1-14-4-26-13-34-25l-8-12-2-5-2-1-7 3-21 9-5 2-3-1-5-8c-3-9-4-18-3-27l2-7h-2c-2 0-3-1-1-3 0-2 2-3 3-3l3-2 6-6-2-3-3-1c-9 4-17 10-25 17v2l-1 5-1 12 1 16 2 12c2 15 6 29 10 43 5 14 10 27 13 41l1 13c0 2 0 4-2 7v-9l-5-24-11-33-5-16-5-28c-1-5-3-10-2-16l-1 5 1 20c2 12 6 23 9 34s8 22 10 34l5 28v2h-1l-1 2c0 6-4 9-9 11s-11 4-17 4l-10 1c-2 0-3 0-3 2l-1 2h22c-3 1-4 3-4 5v1c0 3 1 4 4 4 1 0 2-1 1-2v-5l1-2 1 2-1 7-6 1h-1c-2 0-2-1-3-3v-4c0-2 0-2-2-2h-4c-2 0-2 1-2 2v7c0 2 0 2-2 3h-3l-1 1 1 1 4 1 31 7 4 1v-1l-1-3c-1-2 0-2 2-3 0 2-1 4 1 6 4-1 7 1 11 4v4c-4 10-5 21-9 31-1 2 0 4 2 5l14 5c2 0 2 0 3-2l4-9 2-2c3-1 3-1 2-4l-2-12c0-3 1-4 4-4l3-1-5-10 3 3 21 37c4 7 8 15 13 21l5 4h8l8-7 2-4-7-5c-1 0-2-1-1-2 1-2 2-1 3-1l7 3c2 1 4 2 5 1l10-1a673 673 0 0 1 61-8c17-2 33-3 49-7l6-2 1-4-1-7-2-3c-3-1-5-2-7-5l-3-1c-1 1-3 0-3-1l-1-1 1-1 3 1c2-1 3 0 5 2l6 5Zm-86 108c-3 6-8 8-14 8-9 0-14-7-12-16l-1-2-5-1c-1 0-3-1-3-3l-3-2-25-9c-11-5-23-8-34-12h-2l-1 12c-1 1 0 1 1 2a198 198 0 0 1 53 17c3 2 3 2 3 4l-4 11-1 1v-2l1-6c1-3 1-3-2-5l-19-7-33-11h-10l-7-2c-1-1-2 0-2 1l-2 6 1 2 13 4 38 12c3 1 3 2 2 5l-5 15-1 2-1-1c2-6 3-12 6-17 1-1 1-2-1-2l-1-1-21-5-29-10-12-2-20-4-2 1-2 4c0 6-2 12-5 18v1c-1 1 0 2 1 2l5 1 49 15 32 10h2l5-1 11 2 52 9 13 3c3 0 3 0 3-3 1-4-2-6-1-10v1h-1c-1 3-1 3-3 2l-4-2-38-16-9-3c-1-1-3-2-3-4l4 1 39 15 10 4h3l-1-2v-2l1-2c1-4 3-8 6-11l2-3h1v2l-4 7-4 6c-1 1-1 2 1 3 1 1 1 4 3 5v1c-1 1 0 1 1 2l11 4 12 4h3l4-1 6 1 12 4c3 1 4 1 6-3l-10-6-2-1c-1 1-3-1-3-2l1-4c2-1 2-3 3-5l-13-6-28-14-16-9Zm-144 61 8-1 25 1 24 2a1140 1140 0 0 1 75 10l15 4h3c1-1 3-1 3-3 1-3 2-5 4-6l1-2v-4c1-3 2-5 5-5h5l3 1h24l9 2c3-1 6 1 8 3l2 1 1-1c1-1 1-2-1-3l-2-1c-1-1-4-2-4-4s-1-2-3-2l-8-1c-4-2-8-2-11-5l-4 2c-8-1-15-3-22-7l-2-1v7c0 2 0 2-2 2h-2l-23-3-56-11h-4l-9 1-41-2a458 458 0 0 0-35 2l-9 23-1 3 28 11 1-7v-1c-1-2-2-4-5-5Zm220-25 6 3 12 8 26 19c9 7 18 14 28 19h3l5-2-20-17 2 1 13 9 9 7c2 2 2 2 4 0l2-2c-9-9-20-17-31-25h2a412 412 0 0 1 30 21c2 2 3 2 4 0 2-2 2-2 0-3l-11-9-45-31c-7-6-15-11-23-15-3-1-3-1-5 2l-1 1c-3 5-5 10-10 14Zm-85-68c-1 5-3 6-7 6l-1 1-5 9c-1 1-1 1 1 2 10 3 20 7 29 12 14 6 28 14 41 22 8 4 16 7 23 12 2 1 2 0 2-1l10-14c-29-20-62-33-93-49Zm82 113c0-8-2-12-7-17l-3-1-38-4h-1l-2 2 2 26c0 1 0 2 2 2l20 3 17 4 3 1c0 2 1 2 3 1l3-3c3-2 3-4 1-7v-7ZM286 356l17 8 19 10c4 2 5 4 3 8v3l2-1v-3l1-2c2 0 1-2 1-3 0-3 0-6 3-9 2-2 2-4-1-6l-2-1c-4-3-5-5-3-11l4-7 2-3c-12 3-25 2-37 4 1 2 0 4-2 6l-7 7Zm145-175c9 0 17-4 24-8l2-2c2-1 1-1 0-2l-16-15h-3l-11 5a349 349 0 0 0-12 7c-3 2-3 7 0 9 5 4 10 6 16 6Zm-15 288-1 4c-3 2-2 5-3 7v1l2 3c2 4 3 9 1 14v2c2 1 2 4 2 6v1h8l7 2 1-1 3-6 5-20c1-1 0-2-1-3l-24-10Zm36 66 4-5 13-19 2-3v-1h-3l-2-2c0-2 0-2-2-2l-2-1-5-3h-4c-3 1-6 1-8-2-1-1-1-2-3-2l-5 12c-3 7-3 7-11 4l-3-1h-7c1 3 2 3 5 4h4c3 0 5 1 6 4 2 0 3-2 5 0l3 4 5-2 2 1c2 3 3 5 3 8s2 4 3 6ZM236 301l1 10v8l-1 2c-2-1-3 1-4 2l-2 5-3 5 42 18-2-4-6-10-19-34c-2-4-1-3-5-2h-1Zm91-246v1l-3 2-4 3v2h1l7-1 10-3 51-5h2l1-1-1-1-8-1-30-1h-32l-13 2c-2 0-5 1-7 3v1l1 1 13-1 12-1Zm132 144c6 0 11-2 16-5 1 0 2-1 1-2l-10-13c0-1-1-2-2-1l-9 3-7 2c-2 1-4 3-5 6 0 2 1 5 3 6 4 3 8 4 13 4Zm-165-71v3l4 5 9 1h32l4 1c2 0 3 0 2-2 0-3-2-3-4-4l-12-2c-8-1-16-1-23-5l-8-2c-4 1-4 2-4 5Zm-77 252c3 1 4 0 4-3l2-10-3-2-2 1-3 17c-1 2-1 2 2 3 4 0 9 1 13 3l5 1 2-2a448 448 0 0 1 1-16c-4-3-8-4-13-5l-2 11c-1 4-1 4-5 3l-1-1ZM458 70l4 3c13 6 26 14 38 22l6 4h3l-1-2c0-2-2-3-3-4l-19-14-11-6-9-3h-8Zm-26 221 5 1v3l-2 2c2 1 4 3 7 3-1-3 1-5 2-7 4-5 6-11 7-18l1-8c-5 8-12 15-19 21l-1 3Zm-233 27 1 2 2 1c1 1 2 1 2-1v-2l5-23c1-2 0-3-2-3-2-1-2 0-3 1l-4 13 1 4v2c-2 2-1 4-2 6Zm125 85h-1c-2-1-2-1-4 1v9c1 4 6 8 9 7 4-1 8-6 8-10 0-2 0-2-2-2-1 4-2 6-5 7-3 0-6-2-8-4-1-2 0-5 3-8Zm115-88 5 4v5c-2 2-5 4-8 4h-1c1 2 3 2 4 2 3 1 3 1 5-2l5-8c2-4 2-4-2-6v-1c-6-3-4-3-8 2ZM177 182l-2 2-6 21c-2 6-3 12-1 19l1 3c2 0 2-2 2-3l3-14v-5l-2 10c0 3-1 7-3 10-1-15 4-29 8-43Zm-3 110c3-2 6-1 9-1l7 2 4 1 1-2-1-1h-2l-32-7h-2l3 1 9 3 4 4Zm210 104-1-1-35-18-2-1h-2v2l2 1 35 17h3Zm64 149 3 3 1 5 2 1c2 0 3 0 3-3l-1-5-2-2-6 1Zm14 11c2-3 1-6 1-9v-1l-6-1 2 6c-1 3-1 3 2 4l2 1h-1Zm-82-126-2-1-21-11-14-7h-2c-1 1 1 1 1 2l5 2 30 15h3ZM163 260v9l1 2h2l2-1-1-5c0-4 0-4-4-5Zm319 173 29 25c-1-4-23-22-29-25Zm-202-72v1l2 1 23 9 4 2c1 1 1 1 2-1l-31-12Zm6-300h3l5-3v-2l-2-1-8 3-1 2 2 1h1Zm54 44 45-1c-15 0-30-1-45 1ZM167 317l2 1 20 5 2 1 2-1-1-1-4-1-15-3c-2-1-4-2-6-1Zm163 90-1-2h-3l-2 5 2 2c1 1 2 0 3-1l1-4Zm16-68 7 3 4 3h2v-3l-10-4-3 1Zm69 16c4-2 7-5 9-9v-1h-1l-5 5-3 5ZM130 600c-5 3-6 9-2 12l2-12Zm288-73 4 8h1l1-1-3-8h-1c-1 0-2-1-2 1Zm-29-172-8-5-6-4-1 1v1l9 4 6 3Zm133 102c2-2 2-4 1-6 0-1 0-2-2-2l-1 2c-1 2 1 4 2 6ZM337 355c0-4 2-7 3-11v-2l-1 1-1 1-2 9 1 2ZM173 568l-1-1-5-4-3 1v2h3l4 3 2-1Zm182-430h-2v2c1 1 4 3 5 2 2 0 2 0 1-2-1-1-2-3-4-2ZM208 87h6l2-1 1-1-2-1c-3-1-5 1-7 3Zm158 253c-1 0-2 2-1 3l2 2h2l2-2-5-3ZM136 575c-4 1-4 4-5 7l4-2 1-5Zm182-199-2 2 1 3c1 1 3-2 3-3 0-2-1-2-2-2Zm234-165 1-1 1-6-2-2-1 3 1 6ZM282 91c-1-3-3-6-3-10l-1-1-1 2c1 3 2 7 5 9Zm156 436-3 1 1 3 2 1 3-3-3-2Zm-209 9 4-5 2-6c-3 3-4 7-6 11Zm110-166c-2 0-2 2-3 2-2 1-2 2-2 4v3l5-9ZM209 548l15-8-1-1c-5 2-9 5-14 9Zm-63-263c2 0 3 0 3-2v-2l-2 1c-1 1-2 2-1 3Zm280-182c5-1 9 3 13 4-4-3-8-6-13-4Zm62 113-10 9 10-9Zm-308 52v-7l-1-1-1 1 1 6 1 1Zm34 174v2h1l2-5-1-1-1 1-1 3ZM451 69l1-1v-1l-2-1h-2c-1 1 0 2 1 2l2 1Zm-21 3 6 1 3 1v-2c-2 1-4-1-6-1-1-1-2-1-3 1Zm16 186-4 11c2-3 4-7 4-11Zm58-110-2-2-2-2 6 6c1-2 0-3-1-4l-1 2ZM179 343c0-4 0-7-2-10l2 10Zm283-110v8-8ZM222 128c-2 1-5 1-7 3 3 0 5-2 7-3Zm282 65-1-2-1 1 1 3 1-2Zm-36 38v5-5Zm6 338 1 2h2v-2h-3ZM403 54l-2-1-1 2h1c1 1 1 0 2-1ZM169 304h-1v4l1-4Zm-25-10c2 2 3 2 5 2l-5-2Zm37-187v-5 5Zm2 239-3-1c1 1 1 2 3 1Zm45-220-4 1 4-1Zm174-21h-2 2Zm117 358-2 3 2-3Zm-61-211v-2 2Zm-292 55v-4 4Zm12-88v-3 3Zm269-1v1l1 2-1-3ZM418 95h-2l2 1v-1Zm29 11v-1l-1-1v1l1 1ZM148 562v1l1 1v-1l-1-1Zm18-323h-3 3Zm152 162-1-1-1 1h2Zm52-36-2-1 2 1Zm-220-56-1 1 1 1v-2Zm2-5-1 1c1 1 1 0 1-1Zm279-10h3-3Z" fill="#000"/><path d="M373 642c-1 0-2 0-3-2l-5-11-1-2-20-24a160 160 0 0 0-45-41l-2-3 2-1 5-8c2-2 2-2 4-1h1v-1s-2 0-1-2h4l3 2 27 28c12 12 22 26 31 40 3 5 7 10 9 16l1 3c1 3-1 5-4 4l-6 3Z" fill="#000"/><path d="M299 558a1171 1171 0 0 1-4 1l-6-3c-15-9-31-14-48-16l-5-1c-2-1-2-1-2-4l1-1v-1c3-2 4-5 6-8 1-2 2-2 4-2 9 1 17 3 26 6l34 14 3 1-8 11-1 3Zm2-9c1-1 2-1 2-3l-2 3ZM331 647a254 254 0 0 1-78-19c2-2 1-4 1-5 0-7 0-14 2-20l4-22v-2c0-1 1-2 2-1l8 2 45 18 17 8 1 4c-2 4-2 8-2 12l-1 18 1 1 3 3c1 2 0 3-2 3h-1Zm0-1-1-2-1-3-1-2-1-6c0-8 0-16 2-23 1-3 1-3-2-4l-23-10-38-14c-2-1-2-1-2 2l-5 26-2 15c0 2 0 3 2 3 18 5 36 11 55 15 5 1 11 3 17 3ZM447 622c5 0 10 2 13 6l2 7v6c-2 4-6 6-10 7-12 1-18-11-16-19 2-4 6-7 11-7Zm6 16-2-6c-2-3-6-2-8 1s-1 6 1 8 5 3 7 2 2-3 2-5Zm5-4v4-4ZM224 647l-1-1-9-30-1-6 1-12v-19l1-11v-3l-4 1-11 5h-1l1-1 3-2 9-4c1 0 2 0 1-2l1-3c2-3 4-4 7-5-2 1-3 3-3 5v2c2 0 1 2 1 3l-1 16-1 25v6l8 32c0 1 1 2-1 4ZM164 154l-3 15c-3 10-4 20-4 31l-1 22-1 1-1-5v-30c1-11 5-22 10-33v-1ZM390 528l2 4 2 11 1 14 1 4c8 13 14 26 21 40v2l-6-11c-5-9-9-19-15-28-3-4-4-8-4-12l-2-21v-3ZM373 642l8-1c2 0 2 0 2 2l1 3c3 0 3 0 3 3 1 5 0 6-5 6-2 0-3-2-3-3l-1 1-1 2-3-1-1-1v-2c-1-2-1-2 1-4l2-2c-1-1-4 0-3-3ZM372 568c-9-10-19-18-30-26l-21-18-4-5v-2l2 3 17 15c10 7 20 15 29 24l7 7v2ZM307 494l4 1 16 5 13 6h2c1-1 0-1-1-2l-1-4 4-1 2 4-1 4-4 1-31-11c-1 0-3-1-3-3ZM269 521c2-5 6-9 10-12l8-4c6-3 6-3 7-10v-5l2-2c2 0 3 1 2 3 0 4-1 7-3 11l-1 2-5 2c-4 1-6 3-9 5-2 2-3 4-6 5l-3 3-2 2ZM493 631c-3 3-3 2-5 0-3-2-4-5-4-8l-3-14-3-3-4-1c3-1 5 0 8 1l2 3 3 14 2 4c0 3 1 5 4 4Z" fill="#000"/><path d="M411 553c0 5-4 8-8 6-3 0-5-3-5-6 0-4 2-6 5-6 2 0 4-1 5 1l3 5Zm-5 6c2 0 3-3 2-5l-3-3-3-1h-1c-2 3 1 8 5 9ZM241 602l1-18 1-11v-11l1-3h1l1 1v3l-3 31-2 8ZM478 631l-3-6-2-12 1-3c1 0 2 0 3 2v2l2 11-1 6ZM196 615c-4-5-7-10-8-16l-2 1-8 7-4 2 1-2c4-4 8-7 13-9h2l6 16v1ZM247 516l-1 1c-11 1-22 4-32 8l-5 1 3-3 17-5 18-2ZM188 542l8-8 3-5 1-4c1-2 1-3 3-3v3c-1 4-3 8-7 11l-8 6ZM439 613l2 1v3l-7 2h-1l1-3 5-3ZM243 609c2 1 8 17 10 23-4-8-8-15-10-23ZM206 514l-19 10c2-3 12-8 19-10ZM198 620l3 11c-2-2-3-7-3-11ZM492 605l-3 3-2-2 3-2 2 1ZM490 600l-1 2c-2 0-3-1-3-2l2-2c1 0 2 0 2 2Zm-1 0v-1l-1 1v1l1-1ZM386 533l2 2-2 3c-1 1-2-1-3-2l1-2c0-2 1-2 2-1-1 1-2 3-1 4h1v-4ZM444 615c0-2 0-3 2-3l1 3-1 2c-2 0-1-1-2-2ZM227 649l2 5-1 1-2-1c0-2-1-4 1-5ZM286 495l-3-3 1-2 2 1v4ZM465 577h-3l2-2c1-1 3-2 5 0l-4 2 2-2-3 2h1ZM388 542v4h-2l-1-3h1v2l1-1 1-2ZM479 635h2v1l-4 1v-1l1-1h1ZM473 578c2 2 2 4 2 8l-2-8ZM234 601h-4l-1-1h1l4 1ZM283 501c1-1 1-3 4-5-1 3-2 4-4 5ZM247 516h7-7ZM206 514l3-1-3 1ZM575 354l-1 1-7 15-9 22-9 15-4 3h-1v-2c3-6 4-12 5-18 1-3 2-7 5-9 5-4 8-10 11-16l5-11 2-4c1-1 2-2 3-1l1 1v2l-1 2Zm-30 55c3-2 4-4 5-7l-5 7ZM324 229c0 10-7 18-15 19-11 3-20 0-26-11v-6l3-10c2-7 7-10 14-12 11-2 23 5 24 17v3Zm-18 1v-3l-1-3h-2v1l2 8h2l1-2 2-6v-1l-1 1-3 5Zm-12-2v2l2 4c2 0 3-1 4-3v-6l-3-2-3 2v3Zm25-3c-4-2-5-1-6 3v3c0 4 0 4 4 3h-1l-2-3c1-2 2-1 3-1l1-1-2-1-1-1 1-1 3-1Zm-34 6 3-2 3-8 1-6-7 16Zm4-1c-1 2-2 3-1 4h4c-2-1-3-2-3-4Zm10 14c-3 0-5-2-8-4 2 2 4 4 8 4Zm0-29h8-8Zm14 2 2 2s0 2 2 2c-1-3-1-3-4-4Zm-8 28h-3 3ZM311 319c0 5-1 7-7 9l-7 1c-7-1-12-6-13-13v-8c1-3 4-5 7-7h4l12 7c3 3 4 6 4 11Zm-11 6h5c3-1 4-2 4-5 0-5-2-8-6-10l-7-4-2-1c-1 1 0 2 1 2v1c4 1 6 4 9 7l1 5c1 2 0 3-3 2h-3c-3 1-5 0-7-2h-2v2l2 1c2 2 5 2 8 2ZM410 281c1 5 2 10 1 16-2-1-2-2-2-3l-2-11c0-1 0-2-2-2l-5 1c-4 0-7-2-7-6l1-7c1-2 1-3 3-3 7-1 13-1 20 2l2 2 2 5c-1 5-2 5-7 6h-4Zm5-10-2-2-9 1c-1 0-2 0-1 1l1 1 11-1Z" fill="#000"/><path d="m291 197 3 1c6-2 13-2 20-2l21 2c7 0 14 3 21 7v1l1 1c8 6 14 13 20 21s11 16 15 25l5 10-7 1 1 9 2 9 2 2 4 1h-6l-2-2c-4-5-5-11-3-17 0-2 1-2 2-2l4-1-1-4a161 161 0 0 0-43-55c-4-3-9-4-13-5l-25-1h-18c-1 1-3 1-3-1Z" fill="#000"/><path d="m291 197-2-2 3-2 13-2c14-1 26-1 39 3l10 4 3 1c1-1 2 0 3 1a109 109 0 0 1 30 35l9 20v2l-5-11c-4-7-8-15-13-21-6-9-12-16-21-23l-5-2-17-5c-10-2-19-3-28-2l-17 2-2 2ZM210 181c0-13 9-20 19-22 6-1 11 0 15 6 3 4 3 10 0 14l-6 9c-4 6-10 7-16 6-5-1-9-3-11-8l-1-5Zm13 12c4 0 7-1 11-3l1-2c0-6 3-10 8-13l1-3c1-5-4-11-10-11-4-1-7 0-11 2s-6 6-9 10c-3 3-3 6-2 10 1 6 7 10 11 10Zm19-14c-2 1-4 2-4 5 3-1 4-3 4-5ZM252 257c0-2 1-3 2-3h5l6 8 16 30 1 2-1 2c-2 0-2 2-3 2l-6-3-6-8c-5-8-10-17-13-26l-1-3v-1Zm4-2-1 2 1 5a147 147 0 0 0 19 33c2 2 3 2 5-1l-1-3-4-7a252 252 0 0 0-16-28l-3-1Z" fill="#000"/><path d="m268 304-5-2c-2 0-3-1-4-3l-4-6-11-19-7-15c-2-6-2-12 0-19l8-16 1-3 4-5v-2h2v1c0 3-1 4-3 5l-2 2-9 20c-1 5-1 9 1 14 2 7 5 14 9 20l10 17 1 3 5 4c2 0 4 2 4 4ZM382 179l7 4a107 107 0 0 1 34 52l4 5v2c-4 2-3 6-2 10v3c-2-5-4-9-3-15v-2l-8-20c-6-13-15-24-25-33l-7-6ZM412 320l-27 5-18 2-26 2-20 2h-5c5 0 10-2 14-3a408 408 0 0 1 48-3l4-2 24-3 5-1 1 1ZM249 209c-2-2-2-4-1-6l4-4 21-16 21-11 18-7c2 0 3-1 2-3l1-1 2 1-2 3-3 1c-12 5-24 10-35 17-10 5-18 12-26 19-2 2-3 4-2 7Z" fill="#000"/><path d="m248 247 5-3 8-1c1-1 2 0 3 1l4 5 10 25 3 7-4-6-9-20-2-6-1-2c-2-3-3-3-7-2l-10 2Z" fill="#000"/><path d="M245 258v-2c2-3 2-5 0-7l-1-4c0-9 3-17 9-24l2-2-1 3-5 12c-2 4-2 8-3 13l1 2c2 4 2 5-1 8l-1 1ZM265 196c3-3 7-4 10-6l3 1 3 3c1 2 2 3 4 2h1c-2 2-3 2-6 0h-5l-8 2-1 3 1 1c1 1 0 2-1 3l-14 9 5-5 9-5-3-5c-1-3-1-3 2-3v2l2-1 10-4h-5c-2 1-4 3-7 3ZM269 151c-5 0-9-3-12-8l-7-16-1-5 2 2 6 12 3 6c2 4 5 7 9 9ZM219 116l-1 3c4-3 9-4 14-6-3-1-6 1-9 1 0-2 1-2 2-2l8-3 4 1c1 1 1 2-1 3l-4 2-14 5h-3c0-2 1-2 2-3l2-1ZM420 311c0 2 0 4-2 6-4 2-8 0-9-4-1-3 1-7 4-8 3-2 7 1 7 6Zm-3-3c-1-2-2-2-4-2l-3 3c0 3 1 4 3 6h4c1 0 2-2 1-3l-1-4ZM295 295c8-1 14 2 18 8s6 11 7 18l-1 5c1-8-2-14-6-20s-11-9-18-11ZM222 236l2-4a167 167 0 0 1 19-24c2-1 3 0 3 2v4l-3-4c-8 8-14 17-21 26ZM268 304l1 3c-1 2 0 3 1 5l10 16v1l-4-4-9-14c-1-2-2-4 1-5v-2ZM360 253c4-3 10-3 14 0 3 2 3 6 0 8l-8 4-7 3h-1l5-2 9-6c2-1 3-2 2-4 0-2-1-3-3-4h-7l-4 1ZM353 266l-10-10-1-3c0-3 1-5 4-6s8 0 11 3l-2-1h-7c-4 1-5 4-3 7 1 3 4 5 6 7l2 3ZM283 310l-1 1c-8 0-6 0-9-5-2-4-4-7-4-11l1 1 6 11c0 1 1 2 3 2l4 1ZM224 271c-5-6-8-13-6-21l1 11 5 10ZM238 85c0-2 2-3 4-3 1 0 2 0 2 2s-3 4-5 4l-1-3Zm4 0-1-1-2 1 1 2 2-2ZM307 277l-5-15 2 1 3 14ZM346 174c2 0 2 0 2 2-1 2-2 4-5 5l-2-2c0-2 3-5 5-5Zm1 2c-3 0-4 1-5 3l1 1 4-4ZM227 284l-3 2c-1 1-3 0-3-1l3-3 3 2ZM355 177c0 2-2 5-4 5-1 1-3 0-2-2l2-4 2-1 2 2Zm-1 1-1-1-3 3 1 1 3-3ZM275 203c0 2 2 0 3 1l1 2c-1 2-4 2-5 1l-1-2 2-2Zm0 2 1 1h1c1-1 0-1-1-1h-1ZM205 275l15-7v1l-15 7v-1ZM219 278c0-2 1-3 2-3l2 2-1 3c-2 1-3 0-3-1h2v-1l-2-1v1ZM202 260l-1-3c0-1 1-2 2-1h3c1 1 1 2-1 4l-3-3v3ZM230 291v1l-1-1-2-1-1-1 2-1c1 0 2 1 2 3ZM198 254l6-6c0 2-3 5-6 6ZM335 178c-2 0-2-1-1-2 1-2 2-2 4-2-1 1-4 2-3 4ZM246 221c-1-2-2-4-1-6l1 6ZM338 174h2v2c-1 1-1 2-3 2l2-2-1-2ZM306 331h7-7ZM413 251l1 2-1 1-1-2 1-1Z" fill="#000"/><path d="m357 258 4 1c-2 1-3 1-4-1ZM229 211l2-5-2 5ZM410 237l1 4-1-4ZM352 254l1 1v1l-1-1v-1ZM366 258l1-1 1 1-1 1-1-1ZM232 284l2 2-2-2ZM244 199l-2 1c0-2 1-1 2-1ZM337 178h-2 2ZM520 284l-10 18-1 1c-1 1-2 1-2-1v-5l5-13 2-3-10 2h-5l-2-1 1-1 4-2 14-2c3 0 6 0 9 2 1 0 2 1 1 2l1 1v3l-2 1-5-2ZM584 280l-1-3-1-7-1-7 1-12c0-1 0-3 2-3l2 3 1 10-1 10v6l-2 3ZM527 440c-3 0-5-2-5-4s2-4 4-4l6-3 2-1v2l-4 8-3 2ZM571 281c1 3 0 7-1 11l-4 10-3 10-1 2 1-6 4-12c2-4 4-9 4-13v-2ZM485 344l1-2 8-9 2-5v-3l1-1 1 1-1 4c-3 6-7 11-12 15ZM493 327l-16 18 1-2 10-13 4-4 1 1ZM575 295c0-6 2-11-1-16 3 3 3 7 1 16ZM485 344c-1 2-2 2-4 2l4-2Z" fill="#000"/><path d="m492 326 2-1-1 2-1-1ZM362 429l1 1-2 4-2-1v-3l3-1Zm0 1c-2 0-2 1-3 2 2 0 3 0 3-2ZM350 421l-7 13 7-13ZM367 433h1c1 1 2 2 1 3s-2 2-3 1c-1 0-2-2-1-3 0-1 1-2 2-1l-1 2 1 1 1-1-1-2ZM222 409c0-2 1-2 2-2l2 1c2-2 4-1 6 1h-10ZM218 407l-1 10v-10h1ZM280 422l-6-2c2 0 4 0 6 2ZM239 414h-1l2-1h1l-2 1ZM263 470l2-14 2-3 2-1 1 2a144 144 0 0 1-4 19c0 1 0 2-2 2l-1-2v-3Zm2 0-1 4c2-1 1-2 1-4ZM346 476v8c0 3-1 4-4 3l-3-1c-2-1-2-2-1-3v-1c3-1 5-3 6-6 0 3-2 5-4 8l4 1 2-9ZM348 471c2-1 4 0 5 1v3l-2 2-2-3-1-3Zm4 2h-1l-1 1 1 1 1-2ZM288 468c1-3 1-7 3-10l-2 10h-1ZM293 463l1-5-1 5ZM288 468l1 3-1-3ZM293 463v3-3ZM444 441v2l1 2c5 2 9 5 12 8l12 10h-1l-24-16c-2-1-2-3 0-6ZM430 446c0-3 2-4 4-4l2 4c0 2-2 3-4 3-1 0-3-2-2-3Zm5 0c0-2-1-3-2-3s-2 1-2 3l2 2 2-2ZM440 449c2 1 1 2 0 3l-1 1-1-1 2-3ZM418 430h-1c-12-8-26-15-39-20l-31-16-1-1h1l53 25 18 11v1ZM392 428h-2c-10-7-21-11-32-17l-21-10-5-3a394 394 0 0 1 27 12l31 16 1 2h1ZM414 437l1 1v2l-2 1c-1-2-4-2-6-4 3 1 5 3 7 0ZM330 390c2-4 3-4 7-2-3 0-5 0-7 2ZM391 428l4 2-4-2ZM366 484l1-4c1-1 1-3 3-3l4 2 1 2c0 4 1 8-1 12 0 1-1 3-3 3l-3-3-2-9Zm3-2v12h2c1-2 2-3 1-6l-3-6ZM409 490l-1 3h-4c-1-2-2-4-1-6l3-2 3 3v2Zm-5-2c-1 3 0 4 2 4 1-1 2-1 1-2l-3-2ZM396 499l5 1c1 0 2 0 2 2l-3 2-3-1h-2l-2-2c1-2 2-2 3-2ZM382 485c2-1 5 0 7 1l-7-1ZM382 480l7 2h-4c-1-1-3 0-3-2ZM389 478l-9-1c3-1 6 0 9 1ZM409 497a1744 1744 0 0 1 0 0ZM389 478h3-3ZM418 474c8 1 13 4 19 8h-2l-13-5-4-3ZM439 484l-1 2 1-2ZM456 520l-11-7c-1-1-3-1-3 1-2-2-1-3 0-4l2-1c5 3 9 5 12 10v1ZM452 508c4 1 6 2 8 5l1 3-1 1-2 1-6-5-1-2c-1 0-2-1-1-2l2-1Zm1 2c2 2 3 5 6 6-1-3-4-4-6-6ZM456 523l-3 2-1-1 2-2 1-1 1 2ZM463 511c0-3-2-4-5-6l-1 1-1-2h1c2 0 6 4 7 6l-1 1ZM462 512l1-1 1 2-2-1ZM250 334c-4-4-4-10-6-15l-2 13c-1 1 0 2 1 2l7 3c-3 0-9-1-10-3l-1-2 4-16 1-3 6 21ZM228 381c0-3 2-5 1-8l-1 3v-4l1-1 2 1c0 2-1 7-3 9ZM324 619c-7 0-13-3-19-5l-26-10-6-3-7-2-3-1 2-11c1-1 2-2 3-1l9 2 35 14c4 2 8 5 13 6l1 2-2 9Zm-34-22h-1l1 1 1-1h-1Zm27 14-1 1v1l2-1-1-1Zm-47-16-1 1 1 1v-2Zm48 13h-3l1 1 2-1Zm-40-16v1-1Zm33 16v1l1 1h1l-2-2Zm-5-4-1-1h-1l1 1h1Zm2 6-1 1h2l-1-1Zm-11-3-1-1h-1l1 1h1ZM262 602c11 3 21 8 33 10l20 8 5 2c3 1 3 1 3 4-1 4-1 4-4 3-6-2-11-3-16-6-5-2-10-4-16-4l-12-3-10-4h-3l-1-5 1-5ZM293 624c-1 4-4 5-7 4l-13-3-11-1c-2 0-2-1-1-3v-2l1-2 3-1 5 2 17 5 6 1ZM307 634c-4-3-9-5-16-4l4-5 2-1 4 1 17 5h3l1 1c1 2-1 5-3 5l-12-2Z" fill="#000"/><path d="M307 634h-2l-13-1-23-4-6-2c0-2 1-2 2-2 7 2 14 2 21 5l7 1 9 1 5 2ZM300 636c7-1 13 1 19 1 1 1 0 2-1 2l-7-1-9-1-2-1ZM299 229c0 2 0 3-2 4l-2-3v-5h2l2 4ZM224 183l-6-2v-3c1-2 3-2 5-2l6 1h1c2 1 3 2 1 4l-7 2Zm-4-3c3 1 5 2 7 1 1 0 2 0 2-2 0-1-2-2-3-1l-6 2Zm1-2h1v-1l-1 1ZM234 175l-1-2 1-1h1v2l-1 1ZM220 172l-2 2v-1l1-1h1ZM417 308v4l-2 2c-2 0-2-1-2-2v-1c0-3 1-4 4-3Z" fill="#000"/></svg>