<svg width="1363" height="1024" viewBox="0 0 1363 1024" fill="none" xmlns="http://www.w3.org/2000/svg">
<g filter="url(#filter0_f_226_538)">
<circle cx="282.124" cy="743.125" r="80.85" transform="rotate(-58.6177 282.124 743.125)" fill="url(#paint0_linear_226_538)" fill-opacity="0.6"/>
</g>
<g filter="url(#filter1_f_226_538)">
<ellipse cx="706.337" cy="569.46" rx="330" ry="330" transform="rotate(-58.8594 706.337 569.46)" fill="url(#paint1_linear_226_538)" fill-opacity="0.6"/>
</g>
<g filter="url(#filter2_f_226_538)">
<path d="M1274.08 752.888C1268.23 765.693 1249.84 776.803 1211.64 780.424C1174.68 783.927 1124.33 779.821 1063.72 768.202C942.719 745.007 784.075 692.521 616.724 616.032C449.372 539.544 305.867 453.934 209.147 377.62C160.695 339.391 124.641 304.006 103.103 273.765C80.8458 242.514 77.2141 221.34 83.0667 208.535C88.9193 195.73 107.307 184.62 145.502 180.999C182.463 177.496 232.813 181.602 293.427 193.221C414.425 216.416 573.069 268.902 740.421 345.391C907.772 421.879 1051.28 507.489 1148 583.803C1196.45 622.032 1232.5 657.417 1254.04 687.658C1276.3 718.909 1279.93 740.083 1274.08 752.888Z" stroke="black" stroke-width="29"/>
</g>
<g filter="url(#filter3_f_226_538)">
<path d="M1282.26 703.629C1274.23 721.213 1251.14 732.72 1212.49 736.383C1174.31 740.002 1123.01 735.732 1062.02 724.041C940.134 700.675 780.791 647.914 612.983 571.217C445.176 494.521 301.006 408.561 203.573 331.685C154.822 293.22 118.021 257.222 95.7735 225.986C73.2531 194.366 66.8452 169.378 74.8821 151.794C82.919 134.209 106.007 122.702 144.653 119.039C182.832 115.42 234.134 119.69 295.122 131.381C417.012 154.747 576.355 207.508 744.163 284.205C911.97 360.901 1056.14 446.861 1153.57 523.737C1202.32 562.203 1239.13 598.2 1261.37 629.437C1283.89 661.056 1290.3 686.044 1282.26 703.629Z" stroke="black" stroke-width="11"/>
</g>
<g filter="url(#filter4_f_226_538)">
<path d="M1257.82 827.649C1250.2 844.325 1228.07 854.919 1191.41 858.031C1155.17 861.109 1106.45 856.692 1048.55 845.281C932.825 822.473 781.407 771.922 621.803 698.975C462.198 626.028 324.886 544.614 231.908 472.034C185.391 435.723 150.171 401.775 128.777 372.353C107.143 342.599 100.672 318.932 108.293 302.256C115.915 285.581 138.046 274.986 174.701 271.874C210.949 268.797 259.667 273.213 317.564 284.624C433.29 307.432 584.708 357.983 744.313 430.93C903.917 503.878 1041.23 585.291 1134.21 657.871C1180.72 694.183 1215.94 728.131 1237.34 757.553C1258.97 787.306 1265.44 810.974 1257.82 827.649Z" stroke="#1A1E24" stroke-width="8.8"/>
</g>
<g filter="url(#filter5_f_226_538)">
<path d="M1288.71 840.838C1280.56 858.688 1257.21 870.217 1218.54 873.883C1180.29 877.508 1128.93 873.229 1067.93 861.534C945.986 838.158 786.604 785.382 618.771 708.674C450.938 631.966 306.732 545.987 209.259 469.079C160.491 430.601 123.649 394.569 101.362 363.278C78.8269 331.637 72.2647 306.437 80.423 288.588C88.5812 270.738 111.93 259.209 150.602 255.543C188.848 251.918 240.203 256.197 301.212 267.892C423.151 291.267 582.534 344.044 750.366 420.752C918.199 497.46 1062.41 583.439 1159.88 660.346C1208.65 698.825 1245.49 734.856 1267.78 766.148C1290.31 797.789 1296.87 822.989 1288.71 840.838Z" stroke="#1A1E24" stroke-width="10"/>
</g>
<g filter="url(#filter6_f_226_538)">
<path d="M1229.24 814.037C1226.17 820.735 1219.85 826.271 1209.69 830.353C1199.5 834.446 1185.83 836.902 1168.87 837.613C1134.98 839.035 1089.08 833.444 1034.27 821.373C924.726 797.25 780.646 747.489 628.071 677.754C475.497 608.02 343.584 531.638 253.657 464.593C208.66 431.045 174.395 399.997 153.291 373.44C142.735 360.156 135.647 348.212 132.072 337.827C128.506 327.47 128.557 319.068 131.619 312.37C134.68 305.671 140.999 300.135 151.164 296.054C161.357 291.961 175.026 289.504 191.98 288.793C225.87 287.372 271.77 292.963 326.583 305.034C436.128 329.157 580.208 378.918 732.783 448.652C885.357 518.386 1017.27 594.769 1107.2 661.814C1152.19 695.361 1186.46 726.41 1207.56 752.966C1218.12 766.251 1225.21 778.194 1228.78 788.58C1232.35 798.937 1232.3 807.338 1229.24 814.037Z" stroke="#070707" stroke-width="9.92"/>
</g>
<g filter="url(#filter7_f_226_538)">
<path d="M1210.79 804.466C1208.03 810.506 1202.08 815.417 1192.37 818.887C1182.65 822.359 1169.57 824.222 1153.34 824.406C1120.91 824.772 1076.84 818.425 1024.15 805.968C918.836 781.07 779.874 731.96 632.285 664.504C484.696 597.049 356.625 524.111 268.879 460.769C224.978 429.079 191.343 399.913 170.396 375.149C159.915 362.759 152.763 351.647 149.027 342.025C145.295 332.411 145.12 324.704 147.881 318.665C150.641 312.625 156.583 307.714 166.295 304.244C176.016 300.772 189.097 298.909 205.325 298.725C237.758 298.359 281.823 304.706 334.514 317.163C439.831 342.061 578.793 391.171 726.382 458.626C873.971 526.082 1002.04 599.02 1089.79 662.362C1133.69 694.052 1167.32 723.218 1188.27 747.982C1198.75 760.372 1205.9 771.484 1209.64 781.106C1213.37 790.72 1213.55 798.427 1210.79 804.466Z" stroke="#070707" stroke-width="7.92"/>
</g>
<g filter="url(#filter8_f_226_538)">
<ellipse cx="740.831" cy="499.099" rx="238.556" ry="344.041" transform="rotate(-58.8594 740.831 499.099)" fill="black"/>
</g>
<g filter="url(#filter9_f_226_538)">
<ellipse cx="706.337" cy="569.46" rx="330" ry="330" transform="rotate(-58.8594 706.337 569.46)" fill="url(#paint2_linear_226_538)" fill-opacity="0.5"/>
</g>
<g filter="url(#filter10_f_226_538)">
<ellipse cx="706.337" cy="569.46" rx="330" ry="330" transform="rotate(-58.8594 706.337 569.46)" fill="url(#paint3_linear_226_538)"/>
</g>
<g filter="url(#filter11_f_226_538)">
<circle cx="282.124" cy="743.125" r="80.85" transform="rotate(-58.6177 282.124 743.125)" fill="url(#paint4_linear_226_538)" fill-opacity="0.5"/>
</g>
<g filter="url(#filter12_f_226_538)">
<circle cx="282.124" cy="743.125" r="80.85" transform="rotate(-58.6177 282.124 743.125)" fill="url(#paint5_linear_226_538)"/>
</g>
<g filter="url(#filter13_f_226_538)">
<circle cx="1244.62" cy="554.625" r="40.4705" transform="rotate(-58.6177 1244.62 554.625)" fill="url(#paint6_linear_226_538)" fill-opacity="0.6"/>
</g>
<g filter="url(#filter14_f_226_538)">
<circle cx="1244.62" cy="554.625" r="40.4705" transform="rotate(-58.6177 1244.62 554.625)" fill="url(#paint7_linear_226_538)" fill-opacity="0.5"/>
</g>
<g filter="url(#filter15_f_226_538)">
<circle cx="1244.62" cy="554.625" r="40.4705" transform="rotate(-58.6177 1244.62 554.625)" fill="url(#paint8_linear_226_538)"/>
</g>
<defs>
<filter id="filter0_f_226_538" x="196.263" y="657.263" width="171.723" height="171.723" filterUnits="userSpaceOnUse" color-interpolation-filters="sRGB">
<feFlood flood-opacity="0" result="BackgroundImageFix"/>
<feBlend mode="normal" in="SourceGraphic" in2="BackgroundImageFix" result="shape"/>
<feGaussianBlur stdDeviation="2.5" result="effect1_foregroundBlur_226_538"/>
</filter>
<filter id="filter1_f_226_538" x="371.289" y="234.411" width="670.098" height="670.098" filterUnits="userSpaceOnUse" color-interpolation-filters="sRGB">
<feFlood flood-opacity="0" result="BackgroundImageFix"/>
<feBlend mode="normal" in="SourceGraphic" in2="BackgroundImageFix" result="shape"/>
<feGaussianBlur stdDeviation="2.5" result="effect1_foregroundBlur_226_538"/>
</filter>
<filter id="filter2_f_226_538" x="54.2518" y="153.489" width="1248.64" height="654.445" filterUnits="userSpaceOnUse" color-interpolation-filters="sRGB">
<feFlood flood-opacity="0" result="BackgroundImageFix"/>
<feBlend mode="normal" in="SourceGraphic" in2="BackgroundImageFix" result="shape"/>
<feGaussianBlur stdDeviation="5.9" result="effect1_foregroundBlur_226_538"/>
</filter>
<filter id="filter3_f_226_538" x="54.2527" y="100.489" width="1248.64" height="654.445" filterUnits="userSpaceOnUse" color-interpolation-filters="sRGB">
<feFlood flood-opacity="0" result="BackgroundImageFix"/>
<feBlend mode="normal" in="SourceGraphic" in2="BackgroundImageFix" result="shape"/>
<feGaussianBlur stdDeviation="5.9" result="effect1_foregroundBlur_226_538"/>
</filter>
<filter id="filter4_f_226_538" x="89.0135" y="254.722" width="1188.09" height="620.462" filterUnits="userSpaceOnUse" color-interpolation-filters="sRGB">
<feFlood flood-opacity="0" result="BackgroundImageFix"/>
<feBlend mode="normal" in="SourceGraphic" in2="BackgroundImageFix" result="shape"/>
<feGaussianBlur stdDeviation="5.9" result="effect1_foregroundBlur_226_538"/>
</filter>
<filter id="filter5_f_226_538" x="50.5488" y="227.791" width="1268.04" height="673.845" filterUnits="userSpaceOnUse" color-interpolation-filters="sRGB">
<feFlood flood-opacity="0" result="BackgroundImageFix"/>
<feBlend mode="normal" in="SourceGraphic" in2="BackgroundImageFix" result="shape"/>
<feGaussianBlur stdDeviation="10.75" result="effect1_foregroundBlur_226_538"/>
</filter>
<filter id="filter6_f_226_538" x="115.797" y="275.017" width="1129.26" height="576.373" filterUnits="userSpaceOnUse" color-interpolation-filters="sRGB">
<feFlood flood-opacity="0" result="BackgroundImageFix"/>
<feBlend mode="normal" in="SourceGraphic" in2="BackgroundImageFix" result="shape"/>
<feGaussianBlur stdDeviation="4.3" result="effect1_foregroundBlur_226_538"/>
</filter>
<filter id="filter7_f_226_538" x="130.033" y="282.75" width="1098.6" height="557.63" filterUnits="userSpaceOnUse" color-interpolation-filters="sRGB">
<feFlood flood-opacity="0" result="BackgroundImageFix"/>
<feBlend mode="normal" in="SourceGraphic" in2="BackgroundImageFix" result="shape"/>
<feGaussianBlur stdDeviation="6" result="effect1_foregroundBlur_226_538"/>
</filter>
<filter id="filter8_f_226_538" x="345.585" y="152.373" width="790.492" height="693.451" filterUnits="userSpaceOnUse" color-interpolation-filters="sRGB">
<feFlood flood-opacity="0" result="BackgroundImageFix"/>
<feBlend mode="normal" in="SourceGraphic" in2="BackgroundImageFix" result="shape"/>
<feGaussianBlur stdDeviation="37.95" result="effect1_foregroundBlur_226_538"/>
</filter>
<filter id="filter9_f_226_538" x="355.689" y="218.811" width="701.298" height="701.298" filterUnits="userSpaceOnUse" color-interpolation-filters="sRGB">
<feFlood flood-opacity="0" result="BackgroundImageFix"/>
<feBlend mode="normal" in="SourceGraphic" in2="BackgroundImageFix" result="shape"/>
<feGaussianBlur stdDeviation="10.3" result="effect1_foregroundBlur_226_538"/>
</filter>
<filter id="filter10_f_226_538" x="355.689" y="218.811" width="701.298" height="701.298" filterUnits="userSpaceOnUse" color-interpolation-filters="sRGB">
<feFlood flood-opacity="0" result="BackgroundImageFix"/>
<feBlend mode="normal" in="SourceGraphic" in2="BackgroundImageFix" result="shape"/>
<feGaussianBlur stdDeviation="10.3" result="effect1_foregroundBlur_226_538"/>
</filter>
<filter id="filter11_f_226_538" x="187.263" y="648.264" width="189.723" height="189.723" filterUnits="userSpaceOnUse" color-interpolation-filters="sRGB">
<feFlood flood-opacity="0" result="BackgroundImageFix"/>
<feBlend mode="normal" in="SourceGraphic" in2="BackgroundImageFix" result="shape"/>
<feGaussianBlur stdDeviation="7" result="effect1_foregroundBlur_226_538"/>
</filter>
<filter id="filter12_f_226_538" x="187.263" y="648.263" width="189.723" height="189.723" filterUnits="userSpaceOnUse" color-interpolation-filters="sRGB">
<feFlood flood-opacity="0" result="BackgroundImageFix"/>
<feBlend mode="normal" in="SourceGraphic" in2="BackgroundImageFix" result="shape"/>
<feGaussianBlur stdDeviation="7" result="effect1_foregroundBlur_226_538"/>
</filter>
<filter id="filter13_f_226_538" x="1199.15" y="509.149" width="90.9531" height="90.9526" filterUnits="userSpaceOnUse" color-interpolation-filters="sRGB">
<feFlood flood-opacity="0" result="BackgroundImageFix"/>
<feBlend mode="normal" in="SourceGraphic" in2="BackgroundImageFix" result="shape"/>
<feGaussianBlur stdDeviation="2.5" result="effect1_foregroundBlur_226_538"/>
</filter>
<filter id="filter14_f_226_538" x="1190.15" y="500.149" width="108.953" height="108.953" filterUnits="userSpaceOnUse" color-interpolation-filters="sRGB">
<feFlood flood-opacity="0" result="BackgroundImageFix"/>
<feBlend mode="normal" in="SourceGraphic" in2="BackgroundImageFix" result="shape"/>
<feGaussianBlur stdDeviation="7" result="effect1_foregroundBlur_226_538"/>
</filter>
<filter id="filter15_f_226_538" x="1190.15" y="500.149" width="108.953" height="108.953" filterUnits="userSpaceOnUse" color-interpolation-filters="sRGB">
<feFlood flood-opacity="0" result="BackgroundImageFix"/>
<feBlend mode="normal" in="SourceGraphic" in2="BackgroundImageFix" result="shape"/>
<feGaussianBlur stdDeviation="7" result="effect1_foregroundBlur_226_538"/>
</filter>
<linearGradient id="paint0_linear_226_538" x1="282.124" y1="662.275" x2="282.124" y2="823.975" gradientUnits="userSpaceOnUse">
<stop stop-color="#4D88DA"/>
<stop offset="0.851666" stop-color="#39CB82" stop-opacity="0"/>
</linearGradient>
<linearGradient id="paint1_linear_226_538" x1="706.337" y1="239.46" x2="706.337" y2="899.46" gradientUnits="userSpaceOnUse">
<stop stop-color="#724DDA"/>
<stop offset="0.816666" stop-color="#39B9CB" stop-opacity="0"/>
</linearGradient>
<linearGradient id="paint2_linear_226_538" x1="706.337" y1="239.46" x2="706.337" y2="899.46" gradientUnits="userSpaceOnUse">
<stop stop-color="#7544FF"/>
<stop offset="0.751666" stop-color="#00E0FF" stop-opacity="0"/>
</linearGradient>
<linearGradient id="paint3_linear_226_538" x1="706.337" y1="239.46" x2="706.337" y2="899.46" gradientUnits="userSpaceOnUse">
<stop offset="0.861666" stop-opacity="0"/>
<stop offset="1"/>
</linearGradient>
<linearGradient id="paint4_linear_226_538" x1="282.124" y1="662.275" x2="282.124" y2="823.975" gradientUnits="userSpaceOnUse">
<stop stop-color="#4D88DA"/>
<stop offset="0.557292" stop-color="#39CB82" stop-opacity="0"/>
</linearGradient>
<linearGradient id="paint5_linear_226_538" x1="282.124" y1="662.275" x2="282.124" y2="823.975" gradientUnits="userSpaceOnUse">
<stop stop-opacity="0"/>
<stop offset="1"/>
</linearGradient>
<linearGradient id="paint6_linear_226_538" x1="1244.63" y1="514.155" x2="1244.63" y2="595.096" gradientUnits="userSpaceOnUse">
<stop stop-color="#DA4DBE"/>
<stop offset="0.851666" stop-color="#396ACB" stop-opacity="0"/>
</linearGradient>
<linearGradient id="paint7_linear_226_538" x1="1244.63" y1="514.155" x2="1244.63" y2="595.096" gradientUnits="userSpaceOnUse">
<stop stop-color="#4D88DA"/>
<stop offset="0.557292" stop-color="#39CB82" stop-opacity="0"/>
</linearGradient>
<linearGradient id="paint8_linear_226_538" x1="1244.63" y1="514.155" x2="1244.63" y2="595.096" gradientUnits="userSpaceOnUse">
<stop stop-opacity="0"/>
<stop offset="1"/>
</linearGradient>
</defs>
</svg>
