<svg width="176" height="48" fill="none" xmlns="http://www.w3.org/2000/svg"><circle cx="112.8" cy="23.8" r="20.8" stroke="#fff" stroke-width="6"/><rect x="105.7" y="18" width="5.1" height="14.1" rx="2.6" fill="#fff"/><rect x="114.7" y="15.4" width="5.1" height="14.1" rx="2.6" fill="#fff"/><path d="m13 7.1 1.3-.4c1.2 0 1.8 1.6 1.8 4.7l1.6 12 .2.2 6-2.2c.8 0 1.2.6 1.3 1.8 0 1-2.2 2-6.6 3.3l-.2.1v.2c0 .7 1.1 4.5 3.4 11.4v.1c0 .7-.5 1.2-1.6 1.7-1 0-1.6-1.2-2-3.6-.8-1.7-1.7-4.6-2.9-8.6h-.2c-4.5 1-6.8 1.7-6.8 2.4-2.5 5.4-4.4 8.1-5.7 8.1-.7 0-1.1-.5-1.3-1.4 0-.8 1-2.5 2.8-4.9l.8-1.8H3.6l-1 .2c-1.2-.3-1.9-1-1.9-2 .5-1.2 1.3-1.8 2.3-1.8l1.3.5c2 0 3-.7 3-2.1C9 20.8 10.8 14.9 13 7.1Zm.5 9.5-3 9.2c2.8-.5 4.2-1 4.2-1.6-.5-5-1-7.6-1.2-7.6ZM33.5 20.5c3 .2 4.4 1.7 4.4 4.3l.1.7v8c0 1 .5 2.3 1.5 3.9-.2 1-.7 1.6-1.5 1.6-2.1-1-3.2-2.8-3.2-5.7v-.7l-.1-.1.1-.2v-.1L35 25c0-1-.5-1.5-1.3-1.5H33c-1.7.7-2.6 4.5-2.6 11.4 0 2.4-.6 3.6-1.8 3.6-1 0-1.4-.6-1.4-1.8v-5.2c0-6.7.6-10 1.7-10l.6-.2 1 .1c1-.6 2-1 3-1ZM47.3 6.4c1 .2 1.5.7 1.5 1.5l-.3 2.3v.7c0 1.5.1 3 .5 4.8a39 39 0 0 1 7.6-1.8c1 .2 1.5.8 1.5 1.5 0 1.2-1.2 1.7-3.6 1.7l-5.4 2c0 4.7.5 11 1.5 19-.2 1-.7 1.5-1.5 1.5H49c-1.2 0-1.8-1.6-1.8-4.7A130 130 0 0 1 46 19.7h-1c-3.2-.2-4.8-1-4.8-2.2 0-.4.4-.9 1-1.4h.6l2.4.6h1.7l-.5-6.5c0-2.5.6-3.8 2-3.8ZM60.3 11c1.3.2 2 .8 2 1.7-.4 1-1 1.4-1.7 1.4-1.3-.2-2-.9-2-1.9.4-.9 1-1.3 1.7-1.3Zm2 7.2c.5 0 1 .5 1.4 1.5l-.5 3.7v2.4c0 2.9.5 6.6 1.5 11.2-.4.7-1 1-1.8 1-1.4 0-2.4-4.2-2.8-12.5v-1.8c0-3.7.7-5.5 2.2-5.5ZM79.6 9.5c.5 0 1 .5 1.6 1.6l-2.3 14.5v4c0 4.3.6 6.4 2 6.4.8.4 1.3 1 1.3 1.6 0 .8-.7 1.3-2.1 1.4-1.6 0-2.7-1.4-3.6-4.2H76C74.7 37.6 73 39 71.3 39c-2.2 0-3.5-1.6-4-4.8 0-3.8 2.6-7.8 7.7-12 1 0 1.5-1.5 1.5-4.3.7-5.6 1.8-8.4 3-8.4Zm-9.1 24.2v1.4l.8.9h.3c1.1 0 2.4-3.4 3.9-10h-.3c-3.2 3-4.7 5.7-4.7 7.7ZM149.1 6.4c1 .2 1.5.7 1.5 1.5l-.3 2.3v.7c0 1.5.1 3 .5 4.8a39 39 0 0 1 7.6-1.8c1 .2 1.5.8 1.5 1.5 0 1.2-1.2 1.7-3.6 1.7l-5.4 2c0 4.7.5 11 1.5 19-.2 1-.7 1.5-1.5 1.5h-.1c-1.2 0-1.8-1.6-1.8-4.7a130 130 0 0 1-1.2-15.2h-1c-3.2-.2-4.8-1-4.8-2.2 0-.4.4-.9 1-1.4h.6l2.4.6h1.7l-.5-6.5c0-2.5.6-3.8 2-3.8ZM166.2 19.3c1.3 0 3.7 2.5 7 7.3v.9c0 1-2.3 1.7-7 2.2l-.2.2v.2c.7 3.1 1.5 4.7 2.3 4.7h.6c1.1 0 2.8-1.2 5-3.6h.4c.7 0 1.2.5 1.6 1.5 0 .8-1.5 2.3-4.4 4.3-.8.5-1.7.8-2.7 1-2.9 0-4.8-2.6-6-7.9-1.5-.2-2.3-1-2.3-2 0-.7.6-1.2 1.8-1.5v.2l.5-.2v-1.3c0-4 1.1-6 3.4-6Zm.3 3.8h-.5l-.2 1.9v1.6h.2c2 0 3-.3 3-.6-1-1.4-1.8-2.3-2.5-3Z" fill="#fff"/></svg>