<svg width="219" height="40" viewBox="0 0 219 40" fill="none" xmlns="http://www.w3.org/2000/svg">
<path d="M156.831 32.4468C156.287 32.4468 155.857 32.2884 155.541 31.9715C155.239 31.6547 155.088 31.2322 155.088 30.7041C155.088 30.161 155.239 29.7309 155.541 29.4141C155.857 29.0973 156.287 28.9388 156.831 28.9388C157.374 28.9388 157.796 29.0973 158.098 29.4141C158.415 29.7309 158.573 30.161 158.573 30.7041C158.573 31.2322 158.415 31.6547 158.098 31.9715C157.796 32.2884 157.374 32.4468 156.831 32.4468ZM167.436 36.2942V34.9363H170.989C171.774 34.9363 172.362 34.7401 172.755 34.3479C173.162 33.9556 173.366 33.3747 173.366 32.6052V31.3604L173.388 28.8936H172.981L173.456 28.1467C173.456 29.1274 173.139 29.912 172.506 30.5004C171.872 31.0738 171.027 31.3604 169.971 31.3604C168.704 31.3604 167.693 30.9455 166.938 30.1157C166.199 29.2859 165.829 28.1844 165.829 26.8114V24.1182C165.829 22.7301 166.199 21.6212 166.938 20.7913C167.693 19.9615 168.704 19.5466 169.971 19.5466C171.027 19.5466 171.872 19.8408 172.506 20.4292C173.139 21.0026 173.456 21.7796 173.456 22.7603L173.049 22.0135H173.366V19.7729H174.859V32.6052C174.859 33.7971 174.52 34.71 173.841 35.3437C173.177 35.9774 172.219 36.2942 170.967 36.2942H167.436ZM170.333 30.0704C171.299 30.0704 172.045 29.7762 172.574 29.1878C173.102 28.5994 173.366 27.7921 173.366 26.7662V24.1635C173.366 23.1224 173.102 22.3077 172.574 21.7193C172.045 21.1308 171.299 20.8366 170.333 20.8366C169.382 20.8366 168.643 21.1308 168.115 21.7193C167.587 22.2926 167.323 23.1073 167.323 24.1635V26.7662C167.323 27.8072 167.587 28.622 168.115 29.2104C168.643 29.7838 169.382 30.0704 170.333 30.0704ZM183.994 32.4468C183.043 32.4468 182.221 32.2582 181.527 31.881C180.833 31.5038 180.297 30.9682 179.92 30.2741C179.558 29.5801 179.377 28.7653 179.377 27.8299V24.1635C179.377 23.228 179.558 22.4208 179.92 21.7419C180.297 21.0478 180.833 20.5122 181.527 20.135C182.221 19.7427 183.043 19.5466 183.994 19.5466C184.929 19.5466 185.736 19.7427 186.415 20.135C187.109 20.5122 187.638 21.0478 188 21.7419C188.377 22.4208 188.565 23.228 188.565 24.1635V26.3362H180.848V27.8299C180.848 28.8709 181.12 29.6857 181.663 30.2741C182.206 30.8625 182.983 31.1568 183.994 31.1568C184.809 31.1568 185.472 30.9832 185.985 30.6362C186.514 30.2741 186.868 29.7687 187.049 29.1199H188.543C188.347 30.1459 187.841 30.9606 187.027 31.5641C186.227 32.1526 185.216 32.4468 183.994 32.4468ZM187.094 25.3177V24.1635C187.094 23.1224 186.823 22.3077 186.28 21.7193C185.752 21.1157 184.99 20.814 183.994 20.814C182.983 20.814 182.206 21.1082 181.663 21.6966C181.12 22.2851 180.848 23.1073 180.848 24.1635V25.1367H187.298L187.094 25.3177ZM192.427 32.2205V19.7729H193.739V21.3798H193.988L193.83 21.7871C193.815 21.1082 193.996 20.565 194.373 20.1577C194.75 19.7503 195.263 19.5466 195.912 19.5466C196.576 19.5466 197.104 19.7654 197.496 20.2029C197.889 20.6405 198.115 21.2591 198.175 22.0587L197.858 21.3798H198.356L198.153 21.7871C198.153 21.1082 198.334 20.565 198.696 20.1577C199.073 19.7503 199.593 19.5466 200.257 19.5466C201.012 19.5466 201.6 19.8257 202.023 20.384C202.445 20.9271 202.656 21.6589 202.656 22.5793V32.2205H201.253V22.6472C201.253 22.0587 201.117 21.5985 200.846 21.2666C200.589 20.9196 200.227 20.7461 199.759 20.7461C199.277 20.7461 198.892 20.9196 198.605 21.2666C198.334 21.5985 198.198 22.0587 198.198 22.6472V32.2205H196.885V22.6472C196.885 22.0587 196.749 21.5985 196.478 21.2666C196.221 20.9196 195.859 20.7461 195.391 20.7461C194.924 20.7461 194.554 20.9196 194.283 21.2666C194.011 21.5985 193.86 22.0587 193.83 22.6472V32.2205H192.427ZM210.569 32.4241C209.784 32.4241 209.09 32.2884 208.487 32.0168C207.898 31.7452 207.423 31.368 207.061 30.8852C206.699 30.3873 206.48 29.8139 206.404 29.1652H207.898C208.004 29.7234 208.29 30.1836 208.758 30.5457C209.241 30.9078 209.844 31.0889 210.569 31.0889H211.859C212.688 31.0889 213.322 30.9003 213.76 30.5231C214.212 30.1308 214.439 29.6102 214.439 28.9615C214.439 28.3579 214.25 27.86 213.873 27.4678C213.496 27.0604 212.975 26.8114 212.311 26.7209L210.184 26.4041C209.052 26.2381 208.192 25.876 207.604 25.3177C207.015 24.7444 206.721 23.9674 206.721 22.9866C206.721 21.9305 207.076 21.1006 207.785 20.4971C208.509 19.8785 209.512 19.5692 210.795 19.5692H211.7C212.862 19.5692 213.797 19.8483 214.507 20.4066C215.231 20.9649 215.653 21.7117 215.774 22.6472H214.28C214.19 22.1342 213.918 21.7193 213.466 21.4024C213.013 21.0705 212.424 20.9045 211.7 20.9045H210.795C209.98 20.9045 209.347 21.0931 208.894 21.4703C208.456 21.8324 208.238 22.3379 208.238 22.9866C208.238 23.56 208.419 24.0126 208.781 24.3446C209.143 24.6614 209.686 24.8802 210.41 25.0009L212.492 25.2951C213.609 25.4611 214.454 25.8458 215.027 26.4493C215.616 27.0378 215.91 27.8299 215.91 28.8257C215.91 29.9271 215.555 30.8022 214.846 31.451C214.152 32.0998 213.156 32.4241 211.859 32.4241H210.569Z" fill="#724DDA"/>
<circle cx="93.9038" cy="19.9077" r="17.393" stroke="white" stroke-width="5.02931"/>
<rect x="87.9844" y="15.0652" width="4.30437" height="11.837" rx="2.15218" fill="white"/>
<rect x="95.5176" y="12.9131" width="4.30437" height="11.837" rx="2.15218" fill="white"/>
<path d="M10.3302 5.96166L11.4199 5.61296C12.4079 5.61296 12.9019 6.92058 12.9019 9.53582L14.2531 19.6045L14.4274 19.7789L19.44 17.9482C20.1083 17.9482 20.4715 18.4567 20.5297 19.4737C20.5297 20.2293 18.6845 21.1446 14.9941 22.2198L14.8197 22.3069V22.4813C14.8197 23.0915 15.7786 26.2734 17.6965 32.0269V32.1141C17.6965 32.6662 17.2461 33.1311 16.3453 33.5089C15.5026 33.5089 14.9505 32.5064 14.6889 30.5014C14.0206 29.0484 13.207 26.6511 12.2481 23.3094H12.0737C8.26707 24.094 6.36376 24.7623 6.36376 25.3145C4.27156 29.8475 2.68789 32.1141 1.61273 32.1141C1.00251 32.1141 0.639282 31.7218 0.523049 30.9372C0.523049 30.2398 1.29309 28.8741 2.83318 26.84L3.53058 25.3145H2.44089L1.61273 25.4888C0.537578 25.2273 0 24.6752 0 23.8325C0.435874 22.8154 1.07516 22.3069 1.91784 22.3069L3.00753 22.7428C4.63479 22.7428 5.44842 22.1471 5.44842 20.9557C6.93039 17.4687 8.55766 12.4707 10.3302 5.96166ZM10.7225 13.8946L8.15084 21.6531C10.5336 21.1882 11.725 20.7378 11.725 20.3019C11.2891 16.0303 10.955 13.8946 10.7225 13.8946Z" fill="white"/>
<path d="M27.4897 17.1636C29.9596 17.367 31.1946 18.5729 31.1946 20.7814L31.2818 21.348L31.1946 28.1476C31.1946 28.9322 31.645 29.9928 32.5458 31.3295V31.4167C32.3133 32.2594 31.892 32.6807 31.2818 32.6807C29.4802 31.9252 28.5794 30.327 28.5794 27.8861V27.3195L28.4486 27.2323L28.5794 27.0579V26.9708L28.7101 20.9557C28.7101 20.113 28.3469 19.6917 27.6204 19.6917H27.0974C25.6445 20.2728 24.918 23.4547 24.918 29.2373C24.918 31.2423 24.4095 32.2448 23.3925 32.2448C22.6079 32.2448 22.2011 31.7509 22.172 30.7629V26.4041C22.172 20.7668 22.666 17.9482 23.654 17.9482L24.0899 17.8174L25.0052 17.9482C25.7898 17.4251 26.6179 17.1636 27.4897 17.1636Z" fill="white"/>
<path d="M39.0553 5.39502C39.8689 5.56937 40.2758 5.97619 40.2758 6.61547L40.0142 8.53331V9.09995C40.0142 10.3785 40.1595 11.7297 40.4501 13.1536H40.5373C43.908 12.1365 46.0002 11.628 46.8139 11.628C47.6566 11.8605 48.0779 12.2818 48.0779 12.8921C48.0779 13.88 47.0754 14.374 45.0704 14.374L40.5373 15.9868C40.5373 19.9096 40.9586 25.2418 41.8013 31.9833C41.627 32.7679 41.2056 33.1602 40.5373 33.1602H40.4501C39.4331 33.1602 38.9246 31.8526 38.9246 29.2373C38.5468 27.2904 38.2272 23.0624 37.9656 16.5534H37.1811C34.4496 16.379 33.0838 15.7398 33.0838 14.6355C33.0838 14.3159 33.389 13.9236 33.9992 13.4587H34.4351L36.4401 13.9817H37.8349L37.4426 8.53331C37.4426 6.44112 37.9802 5.39502 39.0553 5.39502Z" fill="white"/>
<path d="M49.929 9.14354C51.0332 9.376 51.5853 9.86999 51.5853 10.6255C51.2947 11.4391 50.8298 11.846 50.1905 11.846C49.1154 11.6425 48.5778 11.105 48.5778 10.2332C48.8684 9.50676 49.3188 9.14354 49.929 9.14354ZM51.5853 15.2458C52.0503 15.2458 52.4425 15.6671 52.7622 16.5098L52.3699 19.6045V21.6531C52.3699 24.0359 52.7767 27.1597 53.5903 31.0244C53.2998 31.5765 52.8058 31.8526 52.1084 31.8526C50.917 31.8526 50.1324 28.3656 49.7547 21.3916V19.866C49.7547 16.7859 50.3649 15.2458 51.5853 15.2458Z" fill="white"/>
<path d="M66.0764 7.92309C66.5704 7.92309 67.0208 8.38802 67.4276 9.31789L65.5098 21.4352V24.835C65.5098 28.3801 66.0619 30.1527 67.1661 30.1527C67.8926 30.5014 68.2558 30.9663 68.2558 31.5475C68.2558 32.2158 67.6746 32.6081 66.5123 32.7243C65.2337 32.7243 64.2312 31.5474 63.5048 29.1937H63.0689C61.9937 31.5474 60.6861 32.7243 59.146 32.7243C57.3444 32.7243 56.2547 31.3586 55.877 28.6271C55.877 25.4597 57.9982 22.1035 62.2407 18.5584C63.0834 18.5584 63.5048 17.3816 63.5048 15.0278C64.1441 10.2913 65.0013 7.92309 66.0764 7.92309ZM58.4486 28.2784V29.4553L59.146 30.1527H59.4076C60.3374 30.1527 61.4271 27.3485 62.6766 21.7403H62.4151C59.7708 24.3846 58.4486 26.564 58.4486 28.2784Z" fill="white"/>
<path d="M124.393 5.39502C125.207 5.56937 125.614 5.97619 125.614 6.61547L125.352 8.53331V9.09995C125.352 10.3785 125.498 11.7297 125.788 13.1536H125.875C129.246 12.1365 131.338 11.628 132.152 11.628C132.995 11.8605 133.416 12.2818 133.416 12.8921C133.416 13.88 132.413 14.374 130.408 14.374L125.875 15.9868C125.875 19.9096 126.297 25.2418 127.139 31.9833C126.965 32.7679 126.544 33.1602 125.875 33.1602H125.788C124.771 33.1602 124.263 31.8526 124.263 29.2373C123.885 27.2904 123.565 23.0624 123.304 16.5534H122.519C119.788 16.379 118.422 15.7398 118.422 14.6355C118.422 14.3159 118.727 13.9236 119.337 13.4587H119.773L121.778 13.9817H123.173L122.781 8.53331C122.781 6.44112 123.318 5.39502 124.393 5.39502Z" fill="white"/>
<path d="M138.667 16.2047C139.829 16.2338 141.791 18.2678 144.551 22.3069L144.638 23.0479C144.638 23.8615 142.648 24.4863 138.667 24.9222L138.536 25.0529V25.2273C139.146 27.8425 139.786 29.1501 140.454 29.1501H140.977C141.907 29.1501 143.316 28.1476 145.205 26.1426H145.466C146.048 26.1426 146.498 26.564 146.818 27.4066C146.818 28.104 145.597 29.31 143.156 31.0244C142.517 31.4022 141.747 31.6782 140.846 31.8526C138.493 31.8526 136.851 29.6441 135.921 25.2273C134.584 25.0239 133.916 24.4718 133.916 23.571C133.916 22.9317 134.41 22.5103 135.398 22.3069V22.4813L135.834 22.3069V21.2172C135.834 17.8755 136.778 16.2047 138.667 16.2047ZM138.928 19.343H138.536L138.362 20.9557V22.3069H138.536C140.163 22.2488 140.977 22.0745 140.977 21.7839C140.221 20.6506 139.539 19.837 138.928 19.343Z" fill="white"/>
</svg>
