<svg width="219" height="40" fill="none" xmlns="http://www.w3.org/2000/svg"><path d="M157 32h-1l-1-1 1-2h2l1 2-1 1h-1Zm10 4v-1h4l2-1v-6 3h-3l-3-1-1-3v-3l1-3 3-1h3v3-3h2v13l-1 2-3 1h-4Zm3-6 3-1v-7l-3-1-2 1-1 2v3l1 2 2 1Zm14 2h-2l-2-2-1-2v-4l1-2 2-2h4l2 2 1 2v2h-8v2l1 2 2 1h2l1-2h2l-2 3h-3Zm3-7v-1l-1-2-2-1-2 1-1 2v1h6Zm5 7V20h2v2-2h3l1 2v-1 1l1-2h3l1 3v9h-2V21h-2l-1 2v9h-1v-9l-1-2h-2v11h-2Zm19 0h-3l-1-1-1-2h2l1 2h5v-4h-2l-2-1-2-1-1-2 1-3h7l1 3h-2l-1-2h-4l-1 2 1 1 1 1h2l3 1 1 3-1 2-3 1h-1Z" fill="#724DDA"/><circle cx="93.9" cy="19.9" r="17.4" stroke="#fff" stroke-width="5"/><rect x="88" y="15.1" width="4.3" height="11.8" rx="2.2" fill="#fff"/><rect x="95.5" y="12.9" width="4.3" height="11.8" rx="2.2" fill="#fff"/><path d="M10 6h1c1 0 2 1 2 4l1 10 5-2 2 1-6 3 3 10-2 2-1-3-3-8-6 2-4 7-1-1 2-4 1-2H2l-2-1 2-2 1 1c2 0 2-1 2-2l5-15Zm1 8-3 8 4-2-1-6ZM27 17c3 0 4 2 4 4v7l2 3-2 2c-2-1-2-3-2-5v-1h-1 1v-6l-1-1h-1c-1 0-2 3-2 9 0 2-1 3-2 3l-1-1v-5c0-5 1-8 2-8h1l2-1ZM39 5l1 2v6h1l6-1 1 1-3 1-4 2 1 16-1 1h-1l-1-4-1-12h-1l-4-2 1-2 2 1h2l-1-5c0-3 1-4 2-4ZM50 9l2 2-2 1-1-2 1-1Zm2 6 1 2-1 3v2l2 9-2 1c-1 0-2-4-2-11v-1c0-3 0-5 2-5ZM66 8l1 1-1 12v4l1 5 1 2-1 1c-2 0-3-1-3-4h-1c-1 3-2 4-4 4s-3-2-3-4c0-4 2-7 6-10l2-4c0-5 1-7 2-7Zm-8 20v1l1 1 4-8h-1l-4 6ZM124 5l2 2-1 2 1 4 6-1 1 1-3 1-4 2 1 16-1 1c-1 0-2-1-2-4l-1-12-5-2 1-2h1l2 1h1V9l1-4ZM139 16l6 6v1l-6 2 1 4h1l4-3 2 1-4 4-2 1c-3 0-4-2-5-7l-2-1 1-2h1v-1c0-3 1-5 3-5Zm0 3-1 2v1h3l-2-3Z" fill="#fff"/></svg>