<svg width="16" height="16" viewBox="0 0 16 16" fill="none" xmlns="http://www.w3.org/2000/svg">
<path fill-rule="evenodd" clip-rule="evenodd" d="M0.350967 15.649C0.575982 15.8738 0.881001 16 1.19902 16C1.51705 16 1.82206 15.8738 2.04708 15.649L13.5998 4.09627V13.2009C13.5998 13.5192 13.7263 13.8244 13.9513 14.0495C14.1764 14.2745 14.4816 14.401 14.7999 14.401C15.1182 14.401 15.4234 14.2745 15.6485 14.0495C15.8736 13.8244 16 13.5192 16 13.2009V1.20008C16 0.881798 15.8736 0.576553 15.6485 0.351495C15.4234 0.126436 15.1182 0 14.7999 0H2.79913C2.48085 0 2.1756 0.126436 1.95054 0.351495C1.72549 0.576553 1.59905 0.881798 1.59905 1.20008C1.59905 1.51836 1.72549 1.82361 1.95054 2.04866C2.1756 2.27372 2.48085 2.40016 2.79913 2.40016H11.9037L0.350967 13.9529C0.126231 14.1779 0 14.483 0 14.801C0 15.119 0.126231 15.424 0.350967 15.649Z" fill="white"/>
</svg>
